<svg width="114" height="114" viewBox="0 0 114 114" fill="none" xmlns="http://www.w3.org/2000/svg">
<circle cx="57" cy="57" r="56" stroke="#333333" stroke-width="2"/>
<path d="M41.3813 42.1406H37.9125V55.2188H41.0063C41.1938 55.2188 41.3813 55.2188 41.5688 55.2188C44.9125 54.9688 46.5844 52.7656 46.5844 48.6094C46.5844 48.1719 46.5688 47.75 46.5375 47.3438C46.1625 43.875 44.4438 42.1406 41.3813 42.1406ZM42.6 69H28.3969V67.7344H32.1469V42.1406H28.3969V40.875H43.4906C45.5844 40.875 47.3656 41.2344 48.8344 41.9531C51.4594 43.2344 52.7719 45.3594 52.7719 48.3281C52.7719 49.6094 52.5219 50.7812 52.0219 51.8438C50.5219 55.0312 47.1313 56.625 41.85 56.625H37.9125V67.7344H41.3344C41.9906 67.7969 42.4125 68.2188 42.6 69ZM83.9156 67.0781C81.0094 68.6406 77.9469 69.4375 74.7281 69.4688C70.2594 69.4688 66.65 68.0156 63.9 65.1094C61.3063 62.3594 60.0094 58.9531 60.0094 54.8906C60.0094 51.5156 60.9781 48.5156 62.9156 45.8906C65.6344 42.2344 69.5719 40.4062 74.7281 40.4062C78.1344 40.4062 81.1344 41.2031 83.7281 42.7969C83.7281 42.2031 83.7594 41.75 83.8219 41.4375C83.9781 40.9062 84.4469 40.6406 85.2281 40.6406L85.3688 49.6875H83.8688C83.5875 48.6875 83.275 47.7812 82.9313 46.9688C81.3688 43.5 78.8219 41.7656 75.2906 41.7656C74.1969 41.7656 73.1813 41.9375 72.2438 42.2812C68.4313 43.7812 66.525 47.9531 66.525 54.7969C66.5563 63.6094 69.3844 68.0469 75.0094 68.1094C75.5406 68.1094 76.0719 68.0781 76.6031 68.0156C80.2906 67.4844 82.7906 64.8594 84.1031 60.1406H85.5094V69.2344C85.1656 69.2344 84.8844 69.2031 84.6656 69.1406C84.1344 68.9844 83.8844 68.2969 83.9156 67.0781Z" fill="#333333"/>
</svg>
